HIERARCHY
ROOT Hips
{
	OFFSET 0.000000 0.000000 0.000000
	CHANNELS 6 Xposition Yposition Zposition Zrotation Yrotation Xrotation 
	JOINT LHipJoint
	{
		OFFSET 0.000000 0.000000 0.000000
		CHANNELS 3 Zrotation Yrotation Xrotation
		JOINT LeftUpLeg
		{
			OFFSET 1.363060 -1.794630 0.839290
			CHANNELS 3 Zrotation Yrotation Xrotation
			JOINT LeftLeg
			{
				OFFSET 2.448110 -6.726130 0.000000
				CHANNELS 3 Zrotation Yrotation Xrotation
				JOINT LeftFoot
				{
					OFFSET 2.562200 -7.039590 0.000000
					CHANNELS 3 Zrotation Yrotation Xrotation
					JOINT LeftToeBase
					{
						OFFSET 0.157640 -0.433110 2.322550
						CHANNELS 3 Zrotation Yrotation Xrotation
						End Site
						{
							OFFSET 0.000000 0.000000 0.000000
						}
					}
				}
			}
		}
	}
	JOINT RHipJoint
	{
		OFFSET 0.000000 0.000000 0.000000
		CHANNELS 3 Zrotation Yrotation Xrotation
		JOINT RightUpLeg
		{
			OFFSET -1.305520 -1.794630 0.839290
			CHANNELS 3 Zrotation Yrotation Xrotation
			JOINT RightLeg
			{
				OFFSET -2.542530 -6.985550 0.000000
				CHANNELS 3 Zrotation Yrotation Xrotation
				JOINT RightFoot
				{
					OFFSET -2.568260 -7.056230 0.000000
					CHANNELS 3 Zrotation Yrotation Xrotation
					JOINT RightToeBase
					{
						OFFSET -0.164730 -0.452590 2.363150
						CHANNELS 3 Zrotation Yrotation Xrotation
						End Site
						{
							OFFSET 0.000000 0.000000 0.000000
						}
					}
				}
			}
		}
	}
	JOINT LowerBack
	{
		OFFSET 0.000000 0.000000 0.000000
		CHANNELS 3 Zrotation Yrotation Xrotation
		JOINT Spine
		{
			OFFSET 0.028270 2.035590 -0.193380
			CHANNELS 3 Zrotation Yrotation Xrotation
			JOINT Spine1
			{
				OFFSET 0.056720 2.048850 -0.042750
				CHANNELS 3 Zrotation Yrotation Xrotation
				JOINT Neck
				{
					OFFSET 0.000000 0.000000 0.000000
					CHANNELS 3 Zrotation Yrotation Xrotation
					JOINT Neck1
					{
						OFFSET -0.054170 1.746240 0.172020
						CHANNELS 3 Zrotation Yrotation Xrotation
						JOINT Head
						{
							OFFSET 0.104070 1.761360 -0.123970
							CHANNELS 3 Zrotation Yrotation Xrotation
							End Site
							{
								OFFSET 0.000000 0.000000 0.000000
							}
						}
					}
				}
				JOINT LeftShoulder
				{
					OFFSET 0.000000 0.000000 0.000000
					CHANNELS 3 Zrotation Yrotation Xrotation
					JOINT LeftArm
					{
						OFFSET 3.362410 1.200890 -0.311210
						CHANNELS 3 Zrotation Yrotation Xrotation
						JOINT LeftForeArm
						{
							OFFSET 4.983000 -0.000000 -0.000000
							CHANNELS 3 Zrotation Yrotation Xrotation
							JOINT LeftHand
							{
								OFFSET 3.483560 -0.000000 -0.000000
								CHANNELS 3 Zrotation Yrotation Xrotation
								JOINT LeftFingerBase
								{
									OFFSET 0.000000 0.000000 0.000000
									CHANNELS 3 Zrotation Yrotation Xrotation
									JOINT LeftHandIndex1
									{
										OFFSET 0.715260 -0.000000 -0.000000
										CHANNELS 3 Zrotation Yrotation Xrotation
										End Site
										{
											OFFSET 0.000000 0.000000 0.000000
										}
									}
								}
								JOINT LThumb
								{
									OFFSET 0.000000 0.000000 0.000000
									CHANNELS 3 Zrotation Yrotation Xrotation
									End Site
									{
										OFFSET 0.000000 0.000000 0.000000
									}
								}
							}
						}
					}
				}
				JOINT RightShoulder
				{
					OFFSET 0.000000 0.000000 0.000000
					CHANNELS 3 Zrotation Yrotation Xrotation
					JOINT RightArm
					{
						OFFSET -3.136600 1.374050 -0.404650
						CHANNELS 3 Zrotation Yrotation Xrotation
						JOINT RightForeArm
						{
							OFFSET -5.241900 -0.000000 -0.000000
							CHANNELS 3 Zrotation Yrotation Xrotation
							JOINT RightHand
							{
								OFFSET -3.444170 -0.000000 -0.000000
								CHANNELS 3 Zrotation Yrotation Xrotation
								JOINT RightFingerBase
								{
									OFFSET 0.000000 0.000000 0.000000
									CHANNELS 3 Zrotation Yrotation Xrotation
									JOINT RightHandIndex1
									{
										OFFSET -0.622530 -0.000000 -0.000000
										CHANNELS 3 Zrotation Yrotation Xrotation
										End Site
										{
											OFFSET 0.000000 0.000000 0.000000
										}
									}
								}
								JOINT RThumb
								{
									OFFSET 0.000000 0.000000 0.000000
									CHANNELS 3 Zrotation Yrotation Xrotation
									End Site
									{
										OFFSET 0.000000 0.000000 0.000000
									}
								}
							}
						}
					}
				}
			}
		}
	}
}
MOTION
Frames: 11
Frame Time: 0.008333
-2.722898 15.070420 -8.714835 -0.032065 -77.055595 15.484269 -1.324658 2.293422 -7.017900 -10.809545 -8.159121 -29.007901 9.786137 11.478499 61.463994 12.675636 7.397067 -2.373320 11.298864 7.273980 -36.496112 13.245707 -3.785095 1.440175 -16.809511 5.494450 -65.098422 -4.037641 -17.000866 40.183727 8.255577 -2.424177 -2.932640 -3.262672 -5.635725 -17.658040 -6.400092 1.422163 13.531750 4.168306 -1.040269 -4.861190 0.866632 -1.787203 7.582368 -1.604872 2.201467 -9.602999 -2.318943 1.184922 7.652299 8.487580 -4.987516 9.690574 11.946130 -4.709316 5.479361 -82.519956 -48.851291 8.446622 -166.422189 -72.267921 165.292268 -11.337645 23.856736 -5.725313 0.000001 -0.000001 0.000002 -0.000000 0.000000 0.000000 -0.000000 -0.000000 -0.000000 -5.264728 -1.545019 3.850549 68.747173 14.039668 -1.401192 -12.761601 79.526480 -4.621513 4.242000 -1.701505 -0.238769 0.000000 0.000000 -0.000000 -0.000000 -0.000000 0.000000 0.000000 0.000000 -0.000000 
-3.084850 15.097297 -8.772387 -0.902793 -77.645132 16.386342 -1.198279 2.767526 -6.650433 -10.057420 -8.290395 -28.445937 9.731651 11.797892 61.845601 10.218133 6.365685 -1.291841 10.855898 7.502984 -35.943076 13.721923 -4.500719 1.959017 -17.982892 6.754682 -64.884829 -3.708342 -17.089711 37.441215 9.824354 -1.481168 -2.114258 -3.363002 -4.592626 -16.334910 -6.628662 1.451622 12.776104 4.293778 -0.875871 -4.788967 0.633135 -1.400888 7.053073 -1.264028 2.319949 -9.080217 -2.300896 1.243664 8.108424 8.938263 -4.972434 9.458120 12.066982 -5.252767 5.198355 -82.624082 -47.029329 10.623232 -168.833755 -72.012535 168.583970 -12.793897 23.774298 -6.007025 0.000001 -0.000001 0.000002 -0.000000 0.000000 0.000000 -0.000000 0.000000 0.000000 -4.817921 -1.427290 3.884501 68.942597 13.175778 -0.959046 -14.084083 79.455235 -5.569692 4.999361 -1.182626 -0.142486 0.000000 -0.000000 -0.000000 0.000000 0.000000 0.000000 0.000000 -0.000000 -0.000000 
-3.442192 15.117568 -8.835480 0.964446 -77.861578 14.717681 -1.411543 2.729556 -6.503966 -9.404288 -8.502516 -27.693177 9.686935 12.245728 62.134700 7.364808 5.432561 -0.092551 9.436025 8.599368 -34.730521 13.525115 -4.914017 2.668028 -19.997238 7.638091 -64.555515 -2.734309 -17.578024 34.480038 11.224629 -1.419032 -1.683797 -4.005245 -1.887187 -14.404181 -7.278465 1.470511 12.025731 4.424728 -1.068178 -4.773863 0.997423 -1.634877 7.033874 -1.530764 2.268909 -9.104372 -2.201166 1.305264 8.473525 8.192360 -4.552587 9.898082 11.750290 -5.109521 4.924903 -82.867846 -45.717083 13.039117 -171.560135 -71.748428 172.353149 -14.043811 23.694516 -6.246063 0.000001 -0.000001 0.000002 0.000000 0.000000 0.000000 0.000000 0.000000 0.000000 -5.026141 -1.281243 3.999807 69.163558 13.035345 -0.955102 -12.857506 79.499000 -4.364132 6.295928 -0.557923 -0.013123 -0.000000 0.000000 0.000000 -0.000000 -0.000000 0.000000 -0.000000 0.000000 0.000000 
-3.803844 15.131832 -8.897763 2.047136 -78.088455 13.620061 -1.588174 2.882238 -6.179157 -8.637054 -9.176913 -27.407325 9.387361 12.501299 63.052076 4.387818 5.243536 1.421414 8.547067 9.008415 -33.439148 13.646484 -5.196323 3.040207 -20.837827 7.952252 -64.147884 -2.302820 -17.740002 33.395641 12.770743 -1.265086 -1.142832 -3.521422 -2.334225 -13.562969 -7.489486 1.442985 11.381704 4.522181 -1.049324 -4.767651 0.867303 -1.444641 6.385687 -1.420486 2.346620 -8.532526 -2.339913 1.368903 8.924917 8.562451 -4.778439 11.151052 11.610351 -5.834267 4.536626 -82.740508 -43.418653 14.963269 -174.054297 -71.497078 175.462195 -15.346289 23.938793 -6.590823 0.000001 -0.000001 0.000002 0.000000 0.000000 0.000000 0.000000 0.000000 -0.000000 -4.800445 -1.190591 3.891886 69.135402 12.141082 -0.007102 -16.523317 79.275666 -6.938590 5.966311 0.198318 0.130188 0.000000 -0.000000 0.000000 -0.000000 -0.000000 0.000000 0.000000 -0.000000 0.000000 
-4.159174 15.141592 -8.964925 2.597805 -78.117139 12.919374 -1.684253 2.992574 -6.013200 -7.853191 -10.040621 -27.098042 9.279389 12.784467 64.190510 1.109545 5.142163 3.267824 6.561202 11.051514 -32.478750 14.004655 -5.192394 3.210270 -21.090580 7.590900 -63.561781 -2.054408 -17.750023 33.348302 14.250587 -1.110422 -0.612649 -2.103211 -3.997024 -11.432180 -7.409073 1.355608 10.981969 4.622858 -1.273241 -4.858795 1.234376 -1.844327 6.155236 -1.939998 2.310348 -8.453024 -2.530638 1.499524 9.263351 7.900560 -4.488353 11.597358 10.811920 -5.559944 4.485642 -82.588280 -41.661098 16.961958 -176.534433 -71.226372 178.710152 -16.523216 24.112459 -6.894833 0.000001 -0.000001 0.000002 -0.000000 -0.000000 -0.000000 0.000000 -0.000000 -0.000000 -5.134993 -0.749692 3.879877 68.919253 12.061333 0.433924 -17.235662 79.175883 -7.549788 7.112941 0.433774 0.198212 0.000000 -0.000000 0.000000 0.000000 -0.000000 0.000000 0.000000 -0.000000 0.000000 
-4.522913 15.136787 -9.039925 4.185719 -78.134526 11.246132 -1.628851 3.220667 -5.787836 -7.481510 -11.011061 -26.863074 8.972636 12.921812 65.362100 -2.275830 5.411586 5.087419 3.480918 13.950143 -30.287530 14.312259 -5.454440 3.625478 -20.900384 6.985179 -63.717914 -1.869084 -16.911757 33.822892 15.253145 -0.981650 -0.162963 -1.063233 -5.384011 -9.959293 -7.627445 1.254381 10.352340 4.697203 -1.550287 -4.854335 1.342340 -2.131308 6.019522 -2.131747 2.365936 -8.410415 -2.620667 1.627266 9.634263 7.874651 -4.242074 11.663801 10.593678 -5.341334 4.313669 -82.553499 -39.819987 18.952979 -179.015314 -70.913220 -177.473526 -17.804750 23.408154 -6.947784 0.000001 -0.000001 0.000002 0.000000 0.000000 -0.000000 -0.000000 0.000000 0.000000 -5.287602 -0.409200 3.861882 68.859594 11.969016 0.999170 -18.267883 79.047913 -8.347186 6.174253 0.363387 0.166107 0.000000 0.000000 -0.000000 0.000000 -0.000000 0.000000 0.000000 0.000000 -0.000000 
-4.881471 15.124775 -9.115706 4.914747 -78.259257 10.345224 -1.272359 3.514973 -5.559492 -7.182354 -12.069199 -26.508621 8.154806 13.074671 66.526375 -5.230144 6.197832 6.805349 -0.653342 17.799416 -26.613151 14.711698 -5.714338 3.970811 -20.094302 6.298995 -63.977000 -1.881343 -15.599734 34.556511 16.430503 -0.745298 0.362472 -0.060333 -6.178658 -7.611393 -7.650075 1.122353 9.810764 4.690716 -1.791923 -4.846263 1.194277 -2.277532 5.786106 -2.075159 2.484373 -8.301851 -2.640230 1.742256 10.003808 8.641374 -4.158459 11.478428 10.794419 -5.162856 4.016198 -82.593438 -37.783676 20.955768 178.359188 -70.559622 -173.859503 -17.872567 23.228561 -6.904878 0.000001 -0.000001 0.000002 0.000000 0.000000 0.000000 -0.000000 -0.000000 0.000000 -5.307193 -0.064548 3.951652 68.901312 11.917491 1.641209 -19.459030 78.893438 -8.759090 5.926303 1.274148 0.337861 0.000000 0.000000 -0.000000 -0.000000 0.000000 -0.000000 0.000000 0.000000 -0.000000 
-5.239850 15.108709 -9.192613 5.836237 -78.074088 9.159922 -1.280422 3.675922 -5.421785 -6.805979 -12.988150 -26.478514 8.461190 13.347935 67.891119 -7.514231 6.818811 8.332890 -4.587717 21.059568 -20.651337 14.928870 -5.808114 4.293318 -19.244950 5.537491 -64.341583 -2.338483 -15.015357 36.940148 15.763359 -0.189130 -0.379384 1.994719 -8.069218 -2.632441 -7.758882 0.994059 9.341036 4.777565 -2.011439 -4.817065 1.032352 -2.483115 5.739400 -1.977885 2.308689 -8.262198 -2.730779 1.623850 10.264554 6.796287 -3.991198 12.321149 10.837806 -5.030445 3.734341 -82.353462 -35.861435 22.521628 176.134757 -70.245124 -170.703911 -18.746593 22.845982 -6.962280 0.000001 -0.000001 0.000002 -0.000000 0.000000 0.000000 0.000000 0.000000 0.000000 -5.157128 0.214362 3.908499 68.711387 11.984239 2.138849 -20.238621 78.753229 -9.206012 6.084050 1.650637 0.415557 -0.000000 0.000000 0.000000 0.000000 0.000000 -0.000000 -0.000000 0.000000 0.000000 
-5.604580 15.078078 -9.268814 7.086434 -78.010594 7.641847 -1.258565 3.986146 -5.132206 -6.622709 -13.931082 -26.830773 8.391286 13.422813 69.577714 -8.862471 8.128195 9.300901 -6.422446 21.062240 -12.316042 14.843440 -5.980143 4.661629 -18.315158 5.232719 -64.950972 -2.764293 -14.364880 40.308179 12.589181 0.138453 -1.933444 1.158233 -6.468462 -3.593929 -7.987994 0.825918 8.653114 4.816130 -2.112563 -4.660329 1.246216 -2.593048 5.558472 -2.240698 2.381256 -7.998949 -2.785709 1.746622 10.558534 7.446362 -4.075471 11.966004 10.566952 -4.982080 3.617304 -82.060680 -33.863721 23.868565 174.032093 -69.917795 -167.775597 -19.203191 22.685528 -7.003052 0.000001 -0.000001 0.000002 -0.000000 -0.000000 0.000000 0.000000 -0.000000 -0.000000 -5.453687 0.560495 3.881860 68.535556 11.889300 2.714282 -21.320523 78.567628 -9.836336 5.706020 1.984594 0.468079 0.000000 0.000000 -0.000000 0.000000 -0.000000 0.000000 0.000000 0.000000 -0.000000 
-5.964174 15.056306 -9.345811 8.439584 -78.019875 5.933943 -1.370210 4.177391 -4.761749 -6.275707 -14.632340 -27.189170 8.552892 13.577035 71.095140 -10.406590 9.313277 10.509612 -8.246517 20.775241 -2.558560 14.802843 -5.997872 4.759517 -17.475591 4.952479 -64.956506 -3.324054 -13.984996 43.276604 9.074425 0.499165 -3.062504 0.651397 -6.227172 -5.119869 -8.277561 0.643118 8.167388 4.899396 -2.176988 -4.560299 1.253294 -2.648890 5.594317 -2.315955 2.454272 -7.975113 -2.874480 1.855955 10.830545 7.653276 -3.895665 12.036627 10.397794 -4.801385 3.453769 -81.716289 -32.071522 24.848623 173.148234 -69.646020 -166.404669 -21.317498 22.649544 -7.424679 0.000001 -0.000001 0.000002 0.000000 -0.000000 -0.000000 -0.000000 0.000000 0.000000 -5.434506 0.805702 3.927523 68.251287 12.160458 3.145519 -21.783084 78.417408 -10.675454 6.241640 1.445738 0.380096 0.000000 0.000000 -0.000000 0.000000 -0.000000 -0.000000 0.000000 0.000000 -0.000000 
-6.318649 15.034985 -9.419835 9.212847 -78.025568 4.725565 -1.404250 4.291015 -4.387454 -5.813120 -15.365248 -27.451821 8.529689 13.833125 72.558234 -11.522955 10.550818 11.766096 -9.319510 19.033009 6.670291 14.786070 -6.020073 4.672224 -16.495210 4.740625 -64.594626 -4.396735 -14.041670 45.906119 6.399280 1.205429 -3.704543 1.361756 -8.459031 -5.696502 -8.367184 0.501290 7.817135 4.934928 -2.177785 -4.491789 1.331521 -2.699103 5.623343 -2.484147 2.399105 -7.982429 -2.966392 1.874643 11.088560 7.499918 -3.918466 11.964482 10.151503 -4.690694 3.311935 -81.382337 -30.365843 26.077727 171.692459 -69.347016 -164.215546 -21.590162 22.440704 -7.406955 0.000001 -0.000001 0.000002 -0.000000 -0.000000 0.000000 0.000000 -0.000000 -0.000000 -5.512919 0.938945 3.989940 67.968617 12.483051 3.575721 -22.245862 78.256392 -12.297107 6.105649 -0.497431 -0.003326 0.000000 0.000000 0.000000 0.000000 0.000000 0.000000 0.000000 0.000000 0.000000 
